Coordinates
version=1
nRows=24
nColumns=33
inDegrees=yes

Units are S.I. units (second, meters, Newtons, ...)
Angles are in degrees.

endheader
time	ground_thorax_rot_x	ground_thorax_rot_y	ground_thorax_rot_z	ground_thorax_tx	ground_thorax_ty	ground_thorax_tz	clav_prot_r	clav_elev_r	scapula_abduction_r	scapula_elevation_r	scapula_upward_rot_r	scapula_winging_r	shoulder_elv_r	plane_of_elev_r	axial_rot_r	elbow_flexion_r	pro_sup_r	wrist_flex_r	wrist_dev_r	clav_prot_l	clav_elev_l	scapula_abduction_l	scapula_elevation_l	scapula_upward_rot_l	scapula_winging_l	shoulder_elv_l	plane_of_elev_l	axial_rot_l	elbow_flexion_l	pro_sup_l	wrist_flex_l	wrist_dev_l	
2.1000	-3.219999	4.350391	10.736865	-0.104103	1.026915	0.012938	17.135923	-13.286471	42.637725	-13.494093	23.152149	-12.017563	-5.235838	-55.861437	120.748437	-35.346815	-127.868917	-0.319480	8.058625	24.935372	-11.198590	-37.296772	-6.105757	-25.550695	12.275682	54.805357	2.761613	9.179813	12.500229	23.072704	14.585586	-8.819388	
2.1100	-3.136094	4.455103	10.732474	-0.104059	1.026884	0.013096	17.114191	-13.258956	42.441054	-13.406243	22.905485	-11.977300	-5.462172	-56.127261	120.586613	-35.915311	-128.647489	-0.054736	7.816239	24.846032	-11.209075	-37.143316	-6.195252	-25.751128	12.166825	54.942440	2.443679	9.111797	13.416170	22.677722	14.487321	-8.984288	
2.1200	-3.068520	4.558429	10.714331	-0.104007	1.026876	0.013242	17.067489	-13.281611	42.189634	-13.356630	22.638630	-11.880438	-5.700261	-56.414186	120.403440	-36.499348	-129.763555	0.272252	7.531960	24.722346	-11.208331	-36.935088	-6.286112	-25.929539	12.028700	55.101568	2.092628	8.999116	14.367633	22.224715	14.417063	-9.160743	
2.1300	-3.016808	4.659384	10.719569	-0.104011	1.026837	0.013360	17.007781	-13.360601	41.854916	-13.331026	22.280980	-11.720239	-5.940071	-56.721204	120.170369	-37.122262	-131.239887	0.680148	7.208173	24.549370	-11.171651	-36.650831	-6.402315	-26.091223	11.854394	55.253066	1.704257	8.795130	15.376679	21.748805	14.400843	-9.371112	
2.1400	-2.976179	4.756517	10.738793	-0.104063	1.026764	0.013461	16.925782	-13.480963	41.428067	-13.318091	21.838936	-11.500516	-6.184225	-57.042119	119.902514	-37.809090	-133.054119	1.155318	6.864331	24.333179	-11.106863	-36.299177	-6.541988	-26.246773	11.646446	55.409246	1.279548	8.540457	16.465547	21.278103	14.427354	-9.614710	
2.1500	-2.941394	4.854009	10.776767	-0.104182	1.026660	0.013556	16.823404	-13.640060	40.892531	-13.306602	21.281731	-11.219235	-6.420253	-57.368104	119.597328	-38.596825	-135.183494	1.685577	6.549342	24.083539	-11.030190	-35.893782	-6.700024	-26.416068	11.408230	55.588352	0.814038	8.247815	17.656294	20.903387	14.502112	-9.903021	
2.1600	-2.908909	4.945075	10.827742	-0.104355	1.026528	0.013645	16.689288	-13.824127	40.249312	-13.291578	20.635640	-10.881166	-6.662869	-57.705399	119.279237	-39.495448	-137.585834	2.252581	6.275518	23.804599	-10.938288	-35.441691	-6.882004	-26.604948	11.144206	55.784742	0.315973	7.969687	18.957296	20.623471	14.620047	-10.228623	
2.1700	-2.878895	5.031075	10.886071	-0.104573	1.026395	0.013732	16.517051	-14.039842	39.486712	-13.277528	19.897220	-10.476234	-6.908736	-58.055849	118.966626	-40.530091	-140.291031	2.818493	6.082989	23.507116	-10.840372	-34.959127	-7.085366	-26.825921	10.861400	56.013710	-0.209192	7.742626	20.374056	20.504245	14.799535	-10.587284	
2.1800	-2.840234	5.103546	10.957553	-0.104840	1.026229	0.013821	16.313054	-14.241023	38.640179	-13.232595	19.100451	-10.046306	-7.178321	-58.417547	118.681251	-41.704655	-143.074847	3.351966	5.962795	23.202393	-10.721044	-34.466853	-7.324892	-27.083449	10.575118	56.238788	-0.740570	7.609093	21.894015	20.495959	15.023925	-10.962064	
2.1900	-2.798029	5.168910	11.035780	-0.105161	1.026088	0.013915	16.085338	-14.457972	37.713536	-13.178387	18.233129	-9.575135	-7.472682	-58.799946	118.390674	-43.029940	-145.990509	3.853959	5.922721	22.892213	-10.602354	-33.965642	-7.582612	-27.379561	10.280613	56.491167	-1.301243	7.523483	23.513869	20.581713	15.323977	-11.344628	
2.2000	-2.741458	5.213294	11.112269	-0.105523	1.025931	0.014020	15.841371	-14.628164	36.764069	-13.077772	17.359829	-9.121778	-7.818837	-59.192782	118.105475	-44.487548	-148.725595	4.317256	5.925919	22.580058	-10.457346	-33.465070	-7.876856	-27.704088	9.989591	56.725090	-1.867603	7.526620	25.213081	20.643231	15.658661	-11.712063	
2.2100	-2.682894	5.242136	11.183861	-0.105911	1.025837	0.014129	15.581181	-14.803092	35.777157	-12.969955	16.461335	-8.648705	-8.225752	-59.615707	117.782685	-46.083042	-151.402884	4.737950	5.999156	22.257385	-10.308975	-32.948678	-8.190970	-28.062543	9.686993	56.983787	-2.471611	7.576184	26.999632	20.681722	16.078161	-12.051894	
2.2200	-2.603828	5.244985	11.258138	-0.106331	1.025738	0.014255	15.321538	-14.901966	34.809654	-12.795554	15.578861	-8.230050	-8.705767	-60.050167	117.445331	-47.804756	-153.660903	5.114487	6.119122	21.936765	-10.135202	-32.440082	-8.543971	-28.456185	9.390789	57.213862	-3.087665	7.701288	28.854081	20.647713	16.514696	-12.358559	
2.2300	-2.520698	5.233098	11.336379	-0.106781	1.025729	0.014387	15.065568	-15.005935	33.835536	-12.612176	14.669498	-7.806431	-9.259468	-60.529522	117.044132	-49.650586	-155.776288	5.469643	6.286394	21.606173	-9.973780	-31.915542	-8.904575	-28.885994	9.078455	57.473751	-3.772620	7.814504	30.789751	20.544023	17.012951	-12.631330	
2.2400	-2.420608	5.192611	11.419323	-0.107254	1.025738	0.014518	14.812799	-15.043934	32.891151	-12.373310	13.786269	-7.433949	-9.890736	-61.043466	116.641672	-51.587046	-157.539313	5.808249	6.453826	21.271857	-9.786057	-31.389881	-9.300514	-29.340461	8.766956	57.696247	-4.488319	7.971607	32.781386	20.335701	17.490564	-12.872602	
2.2500	-2.326919	5.131712	11.501460	-0.107724	1.025866	0.014629	14.551517	-15.114071	31.927245	-12.152927	12.887365	-7.031394	-10.605618	-61.631007	116.196990	-53.613658	-159.320143	6.123976	6.620599	20.915396	-9.601312	-30.829432	-9.705256	-29.814857	8.431514	57.941147	-5.284172	8.118074	34.842696	20.028538	18.013223	-13.065922	
2.2600	-2.222358	5.044041	11.582213	-0.108206	1.026023	0.014728	14.289037	-15.134896	30.982153	-11.890823	12.010464	-6.664450	-11.387803	-62.266697	115.772746	-55.705345	-160.903800	6.438793	6.739613	20.553475	-9.387467	-30.264922	-10.140839	-30.298343	8.096268	58.146761	-6.116311	8.275810	36.938865	19.619212	18.487444	-13.226472	
2.2700	-2.119095	4.941258	11.654951	-0.108702	1.026265	0.014812	14.032741	-15.165810	30.038867	-11.625388	11.112313	-6.291970	-12.230713	-62.959814	115.313071	-57.863547	-162.435940	6.754179	6.806306	20.182545	-9.178451	-29.686908	-10.577516	-30.790057	7.749610	58.367615	-7.025930	8.390192	39.083906	19.113655	18.947610	-13.343582	
2.2800	-2.009308	4.818513	11.714943	-0.109198	1.026523	0.014880	13.774781	-15.151353	29.113087	-11.321180	10.235014	-5.951210	-13.125703	-63.691708	114.868128	-60.048762	-163.793206	7.101584	6.793531	19.808267	-8.940413	-29.107318	-11.038239	-31.276302	7.405425	58.556139	-7.970106	8.490166	41.249421	18.527698	19.326407	-13.431589	
2.2900	-1.904501	4.684570	11.751792	-0.109678	1.026840	0.014928	13.511299	-15.137031	28.183370	-11.011891	9.357284	-5.605042	-14.063831	-64.461555	114.400020	-62.246053	-165.100984	7.486762	6.712046	19.423291	-8.691650	-28.511195	-11.505800	-31.753149	7.051865	58.748911	-8.965596	8.557442	43.440740	17.888240	19.660937	-13.489768	
2.3000	-1.793022	4.534952	11.779466	-0.110151	1.027117	0.014959	13.242303	-15.052208	27.270158	-10.644524	8.509077	-5.303288	-15.026024	-65.245800	113.977167	-64.420047	-166.208369	7.946589	6.546733	19.041235	-8.398542	-27.923854	-12.008982	-32.220087	6.707730	58.890376	-9.968751	8.612664	45.630059	17.243653	19.885215	-13.556613	
2.3100	-1.683393	4.376365	11.818697	-0.110636	1.027415	0.014972	12.977614	-14.966382	26.352133	-10.259465	7.629153	-4.999507	-16.028755	-66.067106	113.520824	-66.563959	-167.197634	8.502103	6.252983	18.650986	-8.105802	-27.322606	-12.510150	-32.679775	6.354847	59.031714	-11.046900	8.595117	47.830259	16.589776	20.021273	-13.614761	
2.3200	-1.575181	4.203546	11.882232	-0.111118	1.027693	0.014960	12.702024	-14.858008	25.421490	-9.847925	6.745772	-4.701098	-17.086770	-66.932050	113.059753	-68.647969	-168.040804	9.170145	5.827155	18.248272	-7.790576	-26.700651	-13.028556	-33.129118	5.992811	59.145865	-12.178652	8.516946	50.018466	15.942271	20.047898	-13.672245	
2.3300	-1.479318	4.025470	11.956417	-0.111577	1.028019	0.014924	12.406308	-14.790609	24.448388	-9.459234	5.836253	-4.358979	-18.230109	-67.853467	112.512363	-70.663320	-168.834980	9.978259	5.216606	17.812758	-7.476615	-26.017979	-13.534069	-33.546080	5.600432	59.281821	-13.400261	8.329018	52.192587	15.277481	19.974506	-13.699271	
